<svg xmlns="http://www.w3.org/2000/svg" viewBox="0 0 64 64" width="64" height="64" preserveAspectRatio="xMidYMid meet" style="width: 100%; height: 100%; transform: translate3d(0px, 0px, 0px);"><defs><clipPath id="__lottie_element_2"><rect width="64" height="64" x="0" y="0"></rect></clipPath></defs><g clip-path="url(#__lottie_element_2)"><g transform="matrix(0.9153145551681519,-0.40273967385292053,0.40273967385292053,0.9153145551681519,-6.289083480834961,16.94219207763672)" opacity="1" style="display: block;"><g opacity="1" transform="matrix(1,0,0,1,47.4109992980957,10.317999839782715)"><path fill="rgb(236,120,153)" fill-opacity="1" d=" M2.6718807220458984,-1.2801241874694824 C2.6718807220458984,-1.2801241874694824 9.481881141662598,5.528875827789307 9.481881141662598,5.528875827789307 C11.043880462646484,7.091876029968262 11.043880462646484,9.623875617980957 9.481881141662598,11.18587589263916 C9.481881141662598,11.18587589263916 5.818881034851074,14.848875999450684 5.818881034851074,14.848875999450684 C5.818881034851074,14.848875999450684 -6.647119045257568,2.382875680923462 -6.647119045257568,2.382875680923462 C-6.647119045257568,2.382875680923462 -2.984119176864624,-1.2801241874694824 -2.984119176864624,-1.2801241874694824 C-1.4231191873550415,-2.8421242237091064 1.109880805015564,-2.8421242237091064 2.6718807220458984,-1.2801241874694824z"></path></g><g opacity="1" transform="matrix(1,0,0,1,40.84199905395508,17.36400032043457)"><path fill="rgb(194,205,231)" fill-opacity="1" d=" M-2.493119239807129,-5.307124137878418 C-2.493119239807129,-5.307124137878418 13.508880615234375,10.693876266479492 13.508880615234375,10.693876266479492 C13.508880615234375,10.693876266479492 6.889880657196045,17.312875747680664 6.889880657196045,17.312875747680664 C6.889880657196045,17.312875747680664 -9.1121187210083,1.3108757734298706 -9.1121187210083,1.3108757734298706 C-9.1121187210083,1.3108757734298706 -2.493119239807129,-5.307124137878418 -2.493119239807129,-5.307124137878418z"></path></g><g opacity="1" transform="matrix(1,0,0,1,23.34000015258789,34.861000061035156)"><path fill="rgb(248,226,173)" fill-opacity="1" d=" M10.012530326843262,-14.80717658996582 C10.012530326843262,-14.80717658996582 23.008529663085938,-1.8101762533187866 23.008529663085938,-1.8101762533187866 C23.008529663085938,-1.8101762533187866 4.646551609039307,16.281099319458008 4.646551609039307,16.281099319458008 C4.646551609039307,16.281099319458008 -8.350448608398438,3.284099578857422 -8.350448608398438,3.284099578857422 C-8.350448608398438,3.284099578857422 10.012530326843262,-14.80717658996582 10.012530326843262,-14.80717658996582z"></path></g><g opacity="1" transform="matrix(1,0,0,1,27.589000701904297,39.111000061035156)"><path fill="rgb(246,210,150)" fill-opacity="1" d=" M14.261529922485352,-10.55717658996582 C14.261529922485352,-10.55717658996582 18.758529663085938,-6.060176372528076 18.758529663085938,-6.060176372528076 C18.758529663085938,-6.060176372528076 0.3975517749786377,12.031099319458008 0.3975517749786377,12.031099319458008 C0.3975517749786377,12.031099319458008 -4.100448131561279,7.53309965133667 -4.100448131561279,7.53309965133667 C-4.100448131561279,7.53309965133667 14.261529922485352,-10.55717658996582 14.261529922485352,-10.55717658996582z"></path></g><g opacity="1" transform="matrix(1,0,0,1,9.027000427246094,49.67599868774414)"><path fill="rgb(249,238,222)" fill-opacity="1" d=" M5.459551811218262,-0.029900379478931427 C5.459551811218262,-0.029900379478931427 6.459551811218262,-11.029900550842285 6.459551811218262,-11.029900550842285 C6.459551811218262,-11.029900550842285 13.459551811218262,-10.029900550842285 13.459551811218262,-10.029900550842285 C13.459551811218262,-10.029900550842285 14.459551811218262,-7.029900550842285 14.459551811218262,-7.029900550842285 C14.459551811218262,-7.029900550842285 17.37955093383789,-5.529900550842285 17.37955093383789,-5.529900550842285 C17.37955093383789,-5.529900550842285 19.459550857543945,1.9700995683670044 19.459550857543945,1.9700995683670044 C19.459550857543945,1.9700995683670044 7.459551811218262,1.9700995683670044 7.459551811218262,1.9700995683670044 C7.459551811218262,1.9700995683670044 5.459551811218262,-0.029900379478931427 5.459551811218262,-0.029900379478931427z"></path></g><g opacity="1" transform="matrix(1,0,0,1,19.089000701904297,30.610000610351562)"><path fill="rgb(249,238,222)" fill-opacity="1" d=" M14.261529922485352,-10.55717658996582 C14.261529922485352,-10.55717658996582 18.758529663085938,-6.060176372528076 18.758529663085938,-6.060176372528076 C18.758529663085938,-6.060176372528076 0.3975517749786377,12.031099319458008 0.3975517749786377,12.031099319458008 C0.3975517749786377,12.031099319458008 -4.100448131561279,7.534099578857422 -4.100448131561279,7.534099578857422 C-4.100448131561279,7.534099578857422 14.261529922485352,-10.55717658996582 14.261529922485352,-10.55717658996582z"></path></g><g opacity="1" transform="matrix(1,0,0,1,28.940000534057617,29.08300018310547)"><path fill="rgb(141,108,159)" fill-opacity="1" d=" M30.874530792236328,-10.00377368927002 C30.875530242919922,-11.064773559570312 30.454530715942383,-12.082773208618164 29.704530715942383,-12.833773612976074 C29.704530715942383,-12.833773612976074 21.21453094482422,-21.31377410888672 21.21453094482422,-21.31377410888672 C19.632530212402344,-22.82977294921875 17.13652992248535,-22.82977294921875 15.554530143737793,-21.31377410888672 C15.554530143737793,-21.31377410888672 11.284529685974121,-17.073774337768555 11.284529685974121,-17.073774337768555 C10.50452995300293,-17.85577392578125 9.237529754638672,-17.85577392578125 8.456530570983887,-17.075773239135742 C8.455530166625977,-17.07477378845215 8.455530166625977,-17.073774337768555 8.454529762268066,-17.073774337768555 C8.454529762268066,-17.073774337768555 2.794530153274536,-11.413773536682129 2.794530153274536,-11.413773536682129 C2.0135300159454346,-10.633773803710938 2.0125300884246826,-9.36677360534668 2.792530059814453,-8.585773468017578 C2.792530059814453,-8.585773468017578 2.794530153274536,-8.583773612976074 2.794530153274536,-8.583773612976074 C2.794530153274536,-8.583773612976074 2.8445301055908203,-8.533773422241211 2.8445301055908203,-8.533773422241211 C2.8445301055908203,-8.533773422241211 -13.93344783782959,7.962099552154541 -13.93344783782959,7.962099552154541 C-14.437448501586914,8.466099739074707 -14.745448112487793,9.132099151611328 -14.803448677062988,9.843099594116211 C-14.803448677062988,9.843099594116211 -15.453448295593262,18.243099212646484 -15.453448295593262,18.243099212646484 C-15.453448295593262,18.243099212646484 -16.1534481048584,23.16309928894043 -16.1534481048584,23.16309928894043 C-16.23044776916504,23.70909881591797 -15.850448608398438,24.215099334716797 -15.303448677062988,24.293100357055664 C-15.253448486328125,24.300100326538086 -15.203448295593262,24.303098678588867 -15.153448104858398,24.303098678588867 C-15.153448104858398,24.303098678588867 -15.053448677062988,24.303098678588867 -15.053448677062988,24.303098678588867 C-15.053448677062988,24.303098678588867 -10.133448600769043,23.563098907470703 -10.133448600769043,23.563098907470703 C-10.133448600769043,23.563098907470703 -1.6834481954574585,22.943099975585938 -1.6834481954574585,22.943099975585938 C-0.9664482474327087,22.890100479125977 -0.2914482355117798,22.58209991455078 0.2165517657995224,22.07309913635254 C0.2165517657995224,22.07309913635254 17.034530639648438,5.606226444244385 17.034530639648438,5.606226444244385 C17.80752944946289,6.349226474761963 19.03053092956543,6.349226474761963 19.804529190063477,5.606226444244385 C19.804529190063477,5.606226444244385 25.46453094482422,-0.05377351865172386 25.46453094482422,-0.05377351865172386 C26.246530532836914,-0.8347735404968262 26.246530532836914,-2.100773572921753 25.466529846191406,-2.8827736377716064 C25.465530395507812,-2.8827736377716064 25.465530395507812,-2.8837735652923584 25.46453094482422,-2.8837735652923584 C25.46453094482422,-2.8837735652923584 29.704530715942383,-7.123773574829102 29.704530715942383,-7.123773574829102 C30.467529296875,-7.886773586273193 30.888530731201172,-8.925773620605469 30.874530792236328,-10.00377368927002z M-7.55344820022583,11.4621000289917 C-7.55344820022583,11.4621000289917 -6.973448276519775,14.343099594116211 -6.973448276519775,14.343099594116211 C-6.893448352813721,14.736099243164062 -6.5864481925964355,15.042099952697754 -6.193448066711426,15.123099327087402 C-6.193448066711426,15.123099327087402 -3.313448190689087,15.703099250793457 -3.313448190689087,15.703099250793457 C-3.313448190689087,15.703099250793457 -2.243448257446289,21.042098999023438 -2.243448257446289,21.042098999023438 C-2.243448257446289,21.042098999023438 -9.863448143005371,21.563098907470703 -9.863448143005371,21.563098907470703 C-9.863448143005371,21.563098907470703 -13.453448295593262,17.973098754882812 -13.453448295593262,17.973098754882812 C-13.453448295593262,17.973098754882812 -12.843448638916016,10.373099327087402 -12.843448638916016,10.373099327087402 C-12.843448638916016,10.373099327087402 -7.55344820022583,11.4621000289917 -7.55344820022583,11.4621000289917z M-0.45344823598861694,19.91309928894043 C-0.45344823598861694,19.91309928894043 -1.4534482955932617,15.143099784851074 -1.4534482955932617,15.143099784851074 C-1.4534482955932617,15.143099784851074 5.695718765258789,8.191753387451172 5.695718765258789,8.191753387451172 C6.054718971252441,7.771753311157227 6.00571870803833,7.140753746032715 5.586719036102295,6.7817535400390625 C5.212718963623047,6.460753440856934 4.66071891784668,6.460753440856934 4.28571891784668,6.7817535400390625 C4.28571891784668,6.7817535400390625 -2.7934482097625732,13.733099937438965 -2.7934482097625732,13.733099937438965 C-2.7934482097625732,13.733099937438965 -5.153448104858398,13.263099670410156 -5.153448104858398,13.263099670410156 C-5.153448104858398,13.263099670410156 -5.623448371887207,10.90310001373291 -5.623448371887207,10.90310001373291 C-5.623448371887207,10.90310001373291 -1.384281039237976,6.771753311157227 -1.384281039237976,6.771753311157227 C-1.0252810716629028,6.3517537117004395 -1.074281096458435,5.7207536697387695 -1.4932810068130493,5.361753463745117 C-1.8682810068130493,5.040753364562988 -2.420281171798706,5.040753364562988 -2.794281005859375,5.361753463745117 C-2.794281005859375,5.361753463745117 -7.033448219299316,9.493099212646484 -7.033448219299316,9.493099212646484 C-7.033448219299316,9.493099212646484 -11.703448295593262,8.56309986114502 -11.703448295593262,8.56309986114502 C-11.703448295593262,8.56309986114502 4.284530162811279,-7.123773574829102 4.284530162811279,-7.123773574829102 C4.284530162811279,-7.123773574829102 15.604530334472656,4.1862263679504395 15.604530334472656,4.1862263679504395 C15.604530334472656,4.1862263679504395 -0.45344823598861694,19.91309928894043 -0.45344823598861694,19.91309928894043z M22.624881744384766,-0.10412420332431793 C22.624881744384766,-0.10412420332431793 22.624881744384766,-0.10412420332431793 22.624881744384766,-0.10412420332431793 C22.234880447387695,-0.49212419986724854 21.604881286621094,-0.49212419986724854 21.214879989624023,-0.10412420332431793 C21.214879989624023,-0.10412420332431793 19.804880142211914,1.3058757781982422 19.804880142211914,1.3058757781982422 C19.416881561279297,1.6958757638931274 19.416881561279297,2.325875759124756 19.804880142211914,2.7158758640289307 C19.804880142211914,2.7158758640289307 18.38488006591797,4.0958757400512695 18.38488006591797,4.0958757400512695 C18.38488006591797,4.0958757400512695 4.284880638122559,-10.004124641418457 4.284880638122559,-10.004124641418457 C4.284880638122559,-10.004124641418457 5.694880962371826,-11.414124488830566 5.694880962371826,-11.414124488830566 C6.084880828857422,-11.027124404907227 6.71488094329834,-11.027124404907227 7.1048808097839355,-11.414124488830566 C7.1048808097839355,-11.414124488830566 8.514881134033203,-12.824124336242676 8.514881134033203,-12.824124336242676 C8.902880668640137,-13.214123725891113 8.902880668640137,-13.844123840332031 8.514881134033203,-14.234124183654785 C8.514881134033203,-14.234124183654785 9.924880981445312,-15.644124031066895 9.924880981445312,-15.644124031066895 C9.924880981445312,-15.644124031066895 10.634881019592285,-14.934123992919922 10.634881019592285,-14.934123992919922 C10.634881019592285,-14.934123992919922 23.334880828857422,-2.2241241931915283 23.334880828857422,-2.2241241931915283 C23.334880828857422,-2.2241241931915283 24.044879913330078,-1.5141241550445557 24.044879913330078,-1.5141241550445557 C24.044879913330078,-1.5141241550445557 22.624881744384766,-0.10412420332431793 22.624881744384766,-0.10412420332431793z M28.284881591796875,-8.594123840332031 C28.284881591796875,-8.594123840332031 24.044879913330078,-4.354124069213867 24.044879913330078,-4.354124069213867 C24.044879913330078,-4.354124069213867 12.724881172180176,-15.664124488830566 12.724881172180176,-15.664124488830566 C12.724881172180176,-15.664124488830566 16.97488021850586,-19.904123306274414 16.97488021850586,-19.904123306274414 C17.75588035583496,-20.686124801635742 19.021881103515625,-20.686124801635742 19.80388069152832,-19.906124114990234 C19.80388069152832,-19.90512466430664 19.804880142211914,-19.90512466430664 19.804880142211914,-19.904123306274414 C19.804880142211914,-19.904123306274414 28.284881591796875,-11.414124488830566 28.284881591796875,-11.414124488830566 C29.065881729125977,-10.634123802185059 29.06688117980957,-9.367124557495117 28.286880493164062,-8.586124420166016 C28.28588104248047,-8.585124015808105 28.28588104248047,-8.585124015808105 28.284881591796875,-8.584124565124512 C28.284881591796875,-8.584124565124512 28.284881591796875,-8.594123840332031 28.284881591796875,-8.594123840332031z"></path></g><g opacity="1" transform="matrix(1,0,0,1,35.882999420166016,20.209999084472656)"><path fill="rgb(141,108,159)" fill-opacity="1" d=" M3.6625301837921143,-1.841124176979065 C3.6625301837921143,-1.841124176979065 2.252530097961426,-0.431124210357666 2.252530097961426,-0.431124210357666 C1.8215301036834717,-0.08612420409917831 1.7508808374404907,0.5428758263587952 2.0958807468414307,0.974875807762146 C2.44088077545166,1.4058758020401 3.070880889892578,1.4758758544921875 3.500880718231201,1.130875825881958 C3.5608808994293213,1.0828758478164673 3.615530014038086,1.0288758277893066 3.6625301837921143,0.9688758254051208 C3.6625301837921143,0.9688758254051208 5.073530197143555,-0.44112420082092285 5.073530197143555,-0.44112420082092285 C5.431529998779297,-0.8601242303848267 5.381880760192871,-1.4921241998672485 4.962880611419678,-1.8511241674423218 C4.587880611419678,-2.171124219894409 4.036530017852783,-2.171124219894409 3.6625301837921143,-1.8511241674423218 C3.6625301837921143,-1.8511241674423218 3.6625301837921143,-1.841124176979065 3.6625301837921143,-1.841124176979065z M7.203530311584473,1.6988757848739624 C7.203530311584473,1.6988757848739624 5.792530059814453,3.1088757514953613 5.792530059814453,3.1088757514953613 C5.372529983520508,3.4678757190704346 5.324530124664307,4.0998759269714355 5.683530330657959,4.518875598907471 C6.042530059814453,4.937875747680664 6.673530101776123,4.986876010894775 7.093530178070068,4.627875804901123 C7.132530212402344,4.594875812530518 7.168529987335205,4.557875633239746 7.203530311584473,4.518875598907471 C7.203530311584473,4.518875598907471 8.612529754638672,3.1088757514953613 8.612529754638672,3.1088757514953613 C8.971529960632324,2.688875913619995 8.922530174255371,2.058875799179077 8.503530502319336,1.6988757848739624 C8.128530502319336,1.377875804901123 7.5775299072265625,1.377875804901123 7.203530311584473,1.6988757848739624z M10.731881141662598,5.228875637054443 C10.731881141662598,5.228875637054443 9.341880798339844,6.648875713348389 9.341880798339844,6.648875713348389 C8.921880722045898,7.007875919342041 8.873530387878418,7.639875888824463 9.233530044555664,8.058876037597656 C9.592530250549316,8.478876113891602 10.224530220031738,8.526875495910645 10.643529891967773,8.167876243591309 C10.682530403137207,8.134876251220703 10.71953010559082,8.097875595092773 10.752530097961426,8.058876037597656 C10.752530097961426,8.058876037597656 12.162529945373535,6.648875713348389 12.162529945373535,6.648875713348389 C12.522530555725098,6.228875637054443 12.473529815673828,5.597875595092773 12.053529739379883,5.238875865936279 C11.679530143737793,4.91787576675415 11.126529693603516,4.91787576675415 10.752530097961426,5.238875865936279 C10.752530097961426,5.238875865936279 10.731881141662598,5.228875637054443 10.731881141662598,5.228875637054443z M-3.9831998348236084,8.639345169067383 C-3.9831998348236084,8.639345169067383 -6.823849201202393,11.459345817565918 -6.823849201202393,11.459345817565918 C-7.242848873138428,11.818345069885254 -7.291199684143066,12.450345039367676 -6.932199954986572,12.869345664978027 C-6.57319974899292,13.288345336914062 -5.941199779510498,13.337345123291016 -5.522199630737305,12.97834587097168 C-5.483199596405029,12.945345878601074 -5.446199893951416,12.908345222473145 -5.4131999015808105,12.869345664978027 C-5.4131999015808105,12.869345664978027 -2.5831997394561768,10.039345741271973 -2.5831997394561768,10.039345741271973 C-2.2231998443603516,9.619345664978027 -2.2728490829467773,8.9883451461792 -2.6928491592407227,8.629345893859863 C-3.0668489933013916,8.308345794677734 -3.618849039077759,8.308345794677734 -3.993849039077759,8.629345893859863 C-3.993849039077759,8.629345893859863 -3.9831998348236084,8.639345169067383 -3.9831998348236084,8.639345169067383z"></path></g></g><g transform="matrix(1,0,0,1,3,59)" opacity="1" style="display: block;"><g opacity="1" transform="matrix(1,0,0,1,0,0)"><path stroke-linecap="round" stroke-linejoin="miter" fill-opacity="0" stroke-miterlimit="10" stroke="rgb(141,108,159)" stroke-opacity="1" stroke-width="2" d=" M10,0.9835548400878906 C10,0.9835548400878906 23.447734832763672,1.0005109310150146 23.447734832763672,1.0005109310150146"></path></g></g></g></svg>